HIERARCHY
ROOT Hips
{
	OFFSET 0.00000 0.00000 0.00000
	CHANNELS 6 Xposition Yposition Zposition Yrotation Zrotation Xrotation 
	JOINT Lumbar
	{
		OFFSET 0 0 0
		CHANNELS 3 Zrotation Xrotation Yrotation
		JOINT Neck
		{
			OFFSET 0.00 0.2701 0.00
			CHANNELS 3 Zrotation Xrotation Yrotation
			End Site
			{
				OFFSET 0.00 0.1379 0.00
			}
		}
		JOINT RightShoulder
		{
			OFFSET 0.0119 0.2289 0.1181
			CHANNELS 3 Zrotation Xrotation Yrotation
			JOINT RightElbow
			{
				OFFSET 0.00 -0.1475 0.00
				CHANNELS 2 Zrotation Yrotation
				JOINT RightWrist
				{
					OFFSET 0.00 -0.1605 0.00
					CHANNELS 2 Zrotation Xrotation
					End Site
					{
						OFFSET 0.0040 -0.1068 0.0006
					}
				}
			}
		}
		JOINT LeftShoulder
		{
			OFFSET 0.0119 0.2289 -0.1181
			CHANNELS 3 Zrotation Xrotation Yrotation
			JOINT LeftElbow
			{
				OFFSET 0.00 -0.1475 0.00
				CHANNELS 2 Zrotation Yrotation
				JOINT LeftWrist
				{
					OFFSET 0.00 -0.1605 0.00
					CHANNELS 2 Zrotation Xrotation
					End Site
					{
						OFFSET 0.0040 -0.1068 -0.0006
					}
				}
			}
		}
	}
	JOINT RightHip
	{
		OFFSET 0.0316 -0.0424 0.0458
		CHANNELS 3 Zrotation Xrotation Yrotation
		JOINT RightKnee
		{
			OFFSET 0.00 -0.2438 0.00
			CHANNELS 1 Zrotation
			JOINT RightAnkle
			{
				OFFSET 0.00 -0.2449 0.00
				CHANNELS 3 Zrotation Xrotation Yrotation
				End Site
				{
					OFFSET 0.1237 -0.0542 0.0051
				}
			}
		}
	}
	JOINT LeftHip
	{
		OFFSET 0.0316 -0.0424 -0.0458
		CHANNELS 3 Zrotation Xrotation Yrotation
		JOINT LeftKnee
		{
			OFFSET 0.00 -0.2438 0.00
			CHANNELS 1 Zrotation
			JOINT LeftAnkle
			{
				OFFSET 0.00 -0.2449 0.00
				CHANNELS 3 Zrotation Xrotation Yrotation
				End Site
				{
					OFFSET 0.1237 -0.0542 -0.0051
				}
			}
		}
	}
}
MOTION
Frames: 30
Frame Time: 0.02
0.00043 0.00031 -0.00086 169.29541 -34.81508 -3.55631 46.12084 2.62809 -9.61138 -16.06011 4.58787 -0.43653 -22.58976 -11.31278 -2.03578 31.32818 76.50674 4.49158 -3.63642 -28.50218 12.96753 3.01996 46.99038 -108.27313 19.23802 -1.95413 38.78204 -1.16507 -11.57988 -21.07172 -7.72165 -3.86538 -2.74193 36.58569 9.89976 3.21811 -26.72489 -8.67336 4.82792 3.31093
0.00066 0.00028 0.00025 169.21673 -34.76517 -3.60667 46.04106 2.62066 -9.56321 -16.05775 4.55407 -0.43673 -22.60468 -11.24695 -2.53116 31.50568 79.20434 5.11931 -3.06338 -28.18088 13.59023 1.46065 47.30534 -105.8628 18.05065 -1.49353 38.77363 -1.18862 -11.30039 -21.07209 -7.73952 -3.88289 -2.75119 36.55008 9.84984 3.32948 -26.73672 -8.65834 4.82149 3.30696
0.0009 0.00025 0.00135 169.13846 -34.71495 -3.65694 45.96107 2.61321 -9.51526 -16.05548 4.52042 -0.43695 -22.61946 -11.18165 -3.02423 31.68261 81.89042 5.74455 -2.49282 -27.86061 14.21021 -0.09254 47.61926 -103.46289 16.86857 -1.03489 38.76476 -1.21227 -11.02204 -21.07259 -7.75735 -3.90035 -2.76042 36.5141 9.79976 3.43972 -26.74853 -8.64338 4.81513 3.30303
0.00113 0.00022 0.00245 169.06005 -34.66512 -3.70717 45.88145 2.6058 -9.46726 -16.05313 4.48673 -0.43716 -22.63433 -11.11609 -3.51792 31.85958 84.57896 6.37021 -1.92171 -27.54031 14.83084 -1.64679 47.93326 -101.06056 15.68517 -0.57581 38.75625 -1.23576 -10.74346 -21.07291 -7.77517 -3.9178 -2.76965 36.47851 9.74995 3.55059 -26.76032 -8.6284 4.80873 3.29908
0.00137 0.00019 0.00355 168.98117 -34.61579 -3.75746 45.80225 2.5984 -9.41901 -16.05069 4.45287 -0.43733 -22.64932 -11.04982 -4.01433 32.03706 87.28084 6.99872 -1.34774 -27.21896 15.45455 -3.20779 48.24826 -98.64643 14.49571 -0.11451 38.74851 -1.25914 -10.46364 -21.07327 -7.79304 -3.9353 -2.77892 36.44352 9.7004 3.66298 -26.77216 -8.61334 4.80223 3.29505
0.0016 0.00016 0.00465 168.9042 -34.56373 -3.80767 45.7206 2.59082 -9.37165 -16.04879 4.41967 -0.43766 -22.66364 -10.98654 -4.50042 32.2128 89.93397 7.61713 -0.78431 -26.90096 16.06671 -4.74457 48.55984 -96.27637 13.32912 0.33856 38.73737 -1.2834 -10.1884 -21.07417 -7.81079 -3.95267 -2.78805 36.40546 9.64922 3.76875 -26.7839 -8.5986 4.79619 3.29133
0.00184 0.00013 0.00575 168.82345 -34.51715 -3.85804 45.64392 2.58366 -9.32262 -16.04575 4.38518 -0.43767 -22.67943 -10.91746 -5.00637 32.39199 92.68037 8.25476 -0.20068 -26.57662 16.7012 -6.3279 48.87813 -93.82113 12.11827 0.80751 38.73268 -1.30572 -9.90428 -21.07343 -7.82874 -3.9703 -2.79745 36.37352 9.60138 3.88746 -26.79578 -8.58325 4.78924 3.28702
0.00208 9e-05 0.00686 168.74621 -34.46566 -3.90817 45.56275 2.57604 -9.27503 -16.04382 4.35188 -0.43797 -22.6936 -10.85348 -5.49468 32.56774 95.34421 8.87543 0.36507 -26.25804 17.31552 -7.86918 49.18993 -91.44284 10.94739 1.26212 38.72278 -1.33006 -9.62828 -21.07522 -7.84654 -3.98767 -2.80661 36.33613 9.55046 3.99475 -26.80762 -8.56841 4.7831 3.28323
0.00231 6e-05 0.00797 168.67318 -34.4075 -3.95837 45.47559 2.56815 -9.22955 -16.04305 4.32003 -0.43867 -22.70685 -10.79675 -5.95883 32.74039 97.89401 9.47248 0.90611 -25.94674 17.90362 -9.35602 49.49511 -89.16447 9.8285 1.69808 38.70352 -1.356 -9.36239 -21.07606 -7.86404 -4.00479 -2.81546 36.29123 9.49571 4.08592 -26.81908 -8.55443 4.77807 3.28017
0.00257 4e-05 0.00904 168.57569 -34.38567 -4.00929 45.42138 2.5627 -9.173 -16.03501 4.27981 -0.43721 -22.72856 -10.70135 -6.55418 32.93419 101.06053 10.19679 1.58073 -25.59426 18.63791 -11.14698 49.84234 -86.32881 8.41993 2.238 38.7291 -1.37015 -9.03888 -21.07024 -7.8829 -4.02353 -2.82604 36.28697 9.4628 4.26333 -26.83174 -8.53618 4.76702 3.2732
0.00276 -2e-05 0.01019 168.52993 -34.28855 -4.05796 45.29869 2.55153 -9.13911 -16.04271 4.25726 -0.44021 -22.7304 -10.68556 -6.87775 33.08125 102.9512 10.65813 1.97904 -25.32822 19.06679 -12.30213 50.0983 -84.65755 7.6164 2.56073 38.66588 -1.41078 -8.8366 -21.0862 -7.89914 -4.03875 -2.833 36.19864 9.38395 4.26301 -26.84247 -8.52651 4.76841 3.27426
0.00278 -0.00019 0.01153 168.62712 -33.97081 -4.10635 44.97678 2.52904 -9.174 -16.09085 4.2837 -0.45631 -22.69313 -10.90703 -6.40541 33.11563 101.09289 10.34433 1.56599 -25.30472 18.62435 -11.64683 50.12106 -86.30782 8.54086 2.26374 38.30986 -1.5122 -8.97288 -21.10193 -7.90614 -4.04499 -2.82959 35.86275 9.17687 3.73557 -26.84274 -8.54405 4.8065 3.29928
0.00274 -0.00042 0.01295 168.77648 -33.57965 -4.15136 44.58773 2.49993 -9.23057 -16.15537 4.32789 -0.47672 -22.63267 -11.20521 -5.66844 33.09984 97.99588 9.77574 0.88505 -25.36673 17.88137 -10.36497 50.04821 -89.10452 10.06076 1.75293 37.87443 -1.64277 -9.22963 -21.15254 -7.91099 -4.04751 -2.8226 35.44508 8.92423 3.03713 -26.84189 -8.56946 4.85655 3.33195
0.00273 -0.00062 0.01433 168.90075 -33.23173 -4.1941 44.23737 2.47108 -9.2727 -16.21412 4.36355 -0.49457 -22.57322 -11.45567 -5.0866 33.09723 95.6321 9.35953 0.36182 -25.38652 17.2977 -9.41311 50.00876 -91.29339 11.26341 1.35563 37.5066 -1.76725 -9.42765 -21.224 -7.918 -4.05134 -2.81759 35.07645 8.69368 2.44244 -26.84512 -8.58893 4.89954 3.3599
0.00271 -0.00081 0.01571 169.02921 -32.8436 -4.25299 43.85428 2.45408 -9.3336 -16.26561 4.40087 -0.51496 -22.5555 -11.7595 -4.36122 33.13648 92.56133 8.79103 -0.31254 -25.42192 16.61766 -8.27011 50.01459 -93.84871 12.6624 0.88947 37.00293 -1.86005 -9.64344 -21.13288 -7.91956 -4.05696 -2.81125 34.65952 8.45658 1.73678 -26.8339 -8.61861 4.9497 3.39326
0.00269 -0.00104 0.0171 169.1635 -32.51976 -4.27731 43.52101 2.41051 -9.36136 -16.33637 4.43934 -0.53112 -22.44341 -11.97168 -3.86685 33.07498 90.65139 8.47594 -0.7372 -25.44351 16.06687 -7.37524 49.89961 -95.91554 13.79588 0.51537 36.76671 -2.02767 -9.84989 -21.39832 -7.93253 -4.05771 -2.80664 34.32133 8.2231 1.22262 -26.85175 -8.62863 4.98741 3.41697
0.00273 -0.00135 0.01849 169.28253 -32.41047 -4.20834 43.364 2.29844 -9.28471 -16.45341 4.47341 -0.53426 -22.09281 -11.90028 -4.12143 32.76229 92.41385 8.95321 -0.39277 -25.41885 15.95005 -7.3333 49.5078 -96.32727 14.02913 0.45371 37.25998 -2.37784 -10.00809 -22.55339 -7.97243 -4.04824 -2.80922 34.24329 8.00431 1.27044 -26.95656 -8.58492 4.99089 3.41384
0.00277 -0.00168 0.01987 169.40923 -32.36563 -4.10462 43.25611 2.15954 -9.17508 -16.58941 4.50885 -0.53306 -21.64475 -11.73619 -4.60937 32.34745 95.35935 9.6888 0.20908 -25.37485 15.97323 -7.5597 48.99165 -96.21562 13.9789 0.49053 38.03016 -2.8052 -10.15127 -24.07948 -8.02468 -4.03356 -2.81337 34.24393 7.79205 1.51736 -27.08952 -8.5208 4.98094 3.40047
0.0028 -0.00201 0.02124 169.54439 -32.27785 -4.01566 43.11017 2.03048 -9.08587 -16.71915 4.54546 -0.53407 -21.23086 -11.62216 -4.9598 31.9694 97.65329 10.28632 0.68466 -25.33131 15.93 -7.65467 48.51039 -96.35576 14.0717 0.47907 38.69265 -3.20861 -10.29682 -25.49584 -8.07484 -4.01975 -2.81579 34.19265 7.58092 1.68041 -27.20528 -8.46422 4.97503 3.3906
0.00285 -0.00234 0.02267 169.63031 -32.24206 -3.93017 43.02503 1.91004 -8.97565 -16.84119 4.57415 -0.53428 -20.85987 -11.47718 -5.43257 31.62925 100.37568 10.96201 1.19241 -25.32612 15.88767 -7.76993 48.11645 -96.46324 14.12343 0.47706 39.27704 -3.56707 -10.46584 -26.67609 -8.11075 -4.01214 -2.8224 34.20337 7.35051 1.81451 -27.33932 -8.41473 4.97792 3.38566
0.00286 -0.00266 0.02397 169.82076 -32.1181 -3.83024 42.82986 1.76672 -8.89962 -16.98145 4.62066 -0.53502 -20.37548 -11.37382 -5.71095 31.18783 102.51435 11.53979 1.69485 -25.23513 15.88109 -7.91211 47.51313 -96.51689 14.18802 0.479 40.08924 -4.03584 -10.58026 -28.42167 -8.17843 -3.9904 -2.82067 34.10896 7.16289 2.05222 -27.44233 -8.34619 4.95956 3.36821
0.00283 -0.00298 0.02495 170.29103 -31.70192 -3.6902 42.28381 1.55532 -8.9379 -17.18472 4.70569 -0.53848 -19.61074 -11.40704 -5.38236 30.48134 102.65572 11.78291 2.14669 -24.91402 15.93759 -8.09064 46.35827 -96.39002 14.33261 0.49144 41.47584 -4.8005 -10.55008 -31.75419 -8.33832 -3.93131 -2.79598 33.66861 7.08828 2.5821 -27.44989 -8.22414 4.88188 3.31616
0.00276 -0.00328 0.02579 170.86755 -31.20117 -3.53833 41.63195 1.32407 -9.00911 -17.40203 4.81066 -0.54257 -18.73286 -11.48577 -4.85325 29.67895 102.19125 11.91991 2.58099 -24.50693 16.02767 -8.28588 44.99999 -96.24723 14.5006 0.50166 43.07874 -5.671 -10.46309 -35.61782 -8.52837 -3.85821 -2.76281 33.1267 7.0576 3.20052 -27.42571 -8.08461 4.78386 3.25228
0.00267 -0.00358 0.02667 171.39937 -30.76127 -3.39787 41.05213 1.10939 -9.05778 -17.60181 4.91294 -0.54623 -17.90204 -11.54313 -4.42669 28.9272 102.07558 12.10767 3.00645 -24.13679 16.10398 -8.45739 43.73553 -96.21578 14.67241 0.49772 44.57617 -6.48683 -10.40149 -39.16555 -8.69973 -3.79113 -2.73317 32.6559 7.00911 3.74267 -27.41811 -7.957 4.69777 3.19556
0.00273 -0.00394 0.02766 171.91521 -30.22944 -3.23143 40.37387 0.86163 -9.13854 -17.85058 4.98756 -0.55033 -17.08955 -11.59761 -3.96244 28.14088 101.69732 12.29417 3.51012 -23.77295 16.176 -8.70238 42.45342 -95.74334 14.77771 0.55884 46.11911 -7.33503 -10.3466 -43.05356 -8.89261 -3.72492 -2.70476 32.0835 6.95087 4.44168 -27.40281 -7.81221 4.60023 3.13119
0.00246 -0.00417 0.02837 172.49091 -29.86754 -3.11583 39.87364 0.67873 -9.15911 -17.99885 5.12554 -0.55373 -16.20911 -11.67334 -3.52284 27.40661 101.69794 12.45405 3.84537 -23.37836 16.26651 -8.79941 41.17073 -96.1722 15.0257 0.48553 47.608 -8.13752 -10.25771 -46.33822 -9.04763 -3.65414 -2.67202 31.69623 6.92435 4.8351 -27.39515 -7.69892 4.52144 3.07978
0.00131 -0.00404 0.02836 173.19327 -30.00105 -3.15147 39.90149 0.67723 -9.01903 -17.87891 5.4248 -0.55505 -15.20339 -11.77026 -3.22847 26.82728 102.96347 12.57007 3.70214 -22.89787 16.37069 -8.44364 39.85722 -99.26677 15.70471 0.01677 48.95375 -8.80838 -10.14703 -47.96147 -9.09075 -3.56973 -2.62685 31.85678 6.96576 4.33952 -27.42058 -7.68054 4.50325 3.06957
-0.00019 -0.00379 0.02804 173.95452 -30.30728 -3.2372 40.10989 0.74233 -8.81474 -17.65482 5.78876 -0.55567 -14.12629 -11.89302 -2.96032 26.3064 104.61051 12.66008 3.39208 -22.39354 16.49683 -7.94399 38.56566 -103.2387 16.51942 -0.58309 50.22542 -9.42553 -9.99405 -48.93288 -9.09463 -3.48189 -2.57799 32.20474 7.03932 3.53706 -27.45394 -7.6939 4.50394 3.07236
-0.00155 -0.00361 0.02783 174.69702 -30.53038 -3.29521 40.22847 0.7787 -8.63122 -17.47003 6.1289 -0.55664 -13.0608 -12.02093 -2.65949 25.76733 106.03303 12.75943 3.16875 -21.91471 16.63169 -7.53601 37.31627 -106.69859 17.246 -1.10708 51.49061 -10.05319 -9.82135 -50.11165 -9.11645 -3.39874 -2.5326 32.45856 7.10379 2.88912 -27.48067 -7.69045 4.4936 3.06762
-0.00284 -0.00337 0.02775 175.40935 -30.76962 -3.37445 40.37633 0.80773 -8.48478 -17.31983 6.44627 -0.55749 -12.08303 -12.07646 -2.43586 25.18963 107.65813 12.86945 2.89888 -21.37115 16.68993 -7.02031 35.83894 -110.63788 18.08694 -1.69966 52.93216 -10.74255 -9.8079 -51.6815 -9.13905 -3.30254 -2.47974 32.74599 7.14597 2.17956 -27.5188 -7.69642 4.49311 3.06942
